<?xml version="1.0" standalone="no"?><svg xmlns="http://www.w3.org/2000/svg" viewBox="0 0 1440 320"><path fill="#ff3d3d" fill-opacity="1" d="M0,96L6.2,101.3C12.3,107,25,117,37,101.3C49.2,85,62,43,74,42.7C86.2,43,98,85,111,112C123.1,139,135,149,148,176C160,203,172,245,185,234.7C196.9,224,209,160,222,149.3C233.8,139,246,181,258,213.3C270.8,245,283,267,295,266.7C307.7,267,320,245,332,245.3C344.6,245,357,267,369,266.7C381.5,267,394,245,406,250.7C418.5,256,431,288,443,272C455.4,256,468,192,480,149.3C492.3,107,505,85,517,106.7C529.2,128,542,192,554,197.3C566.2,203,578,149,591,106.7C603.1,64,615,32,628,58.7C640,85,652,171,665,186.7C676.9,203,689,149,702,133.3C713.8,117,726,139,738,138.7C750.8,139,763,117,775,112C787.7,107,800,117,812,128C824.6,139,837,149,849,176C861.5,203,874,245,886,250.7C898.5,256,911,224,923,202.7C935.4,181,948,171,960,176C972.3,181,985,203,997,197.3C1009.2,192,1022,160,1034,170.7C1046.2,181,1058,235,1071,234.7C1083.1,235,1095,181,1108,186.7C1120,192,1132,256,1145,282.7C1156.9,309,1169,299,1182,282.7C1193.8,267,1206,245,1218,240C1230.8,235,1243,245,1255,208C1267.7,171,1280,85,1292,53.3C1304.6,21,1317,43,1329,42.7C1341.5,43,1354,21,1366,58.7C1378.5,96,1391,192,1403,234.7C1415.4,277,1428,267,1434,261.3L1440,256L1440,320L1433.8,320C1427.7,320,1415,320,1403,320C1390.8,320,1378,320,1366,320C1353.8,320,1342,320,1329,320C1316.9,320,1305,320,1292,320C1280,320,1268,320,1255,320C1243.1,320,1231,320,1218,320C1206.2,320,1194,320,1182,320C1169.2,320,1157,320,1145,320C1132.3,320,1120,320,1108,320C1095.4,320,1083,320,1071,320C1058.5,320,1046,320,1034,320C1021.5,320,1009,320,997,320C984.6,320,972,320,960,320C947.7,320,935,320,923,320C910.8,320,898,320,886,320C873.8,320,862,320,849,320C836.9,320,825,320,812,320C800,320,788,320,775,320C763.1,320,751,320,738,320C726.2,320,714,320,702,320C689.2,320,677,320,665,320C652.3,320,640,320,628,320C615.4,320,603,320,591,320C578.5,320,566,320,554,320C541.5,320,529,320,517,320C504.6,320,492,320,480,320C467.7,320,455,320,443,320C430.8,320,418,320,406,320C393.8,320,382,320,369,320C356.9,320,345,320,332,320C320,320,308,320,295,320C283.1,320,271,320,258,320C246.2,320,234,320,222,320C209.2,320,197,320,185,320C172.3,320,160,320,148,320C135.4,320,123,320,111,320C98.5,320,86,320,74,320C61.5,320,49,320,37,320C24.6,320,12,320,6,320L0,320Z"></path></svg>